<svg xmlns="http://www.w3.org/2000/svg">
  <!-- Lucide 0.468.0: https://github.com/lucide-icons/lucide/tree/0.468.0/icons
       Official icon children copied unchanged into named symbols.
       ISC / Feather MIT notices and source mapping: LICENSE.txt. -->
  <symbol id="layout-dashboard" viewBox="0 0 24 24">
    <rect width="7" height="9" x="3" y="3" rx="1" />
    <rect width="7" height="5" x="14" y="3" rx="1" />
    <rect width="7" height="9" x="14" y="12" rx="1" />
    <rect width="7" height="5" x="3" y="16" rx="1" />
  </symbol>
  <symbol id="list-checks" viewBox="0 0 24 24">
    <path d="m3 17 2 2 4-4" />
    <path d="m3 7 2 2 4-4" />
    <path d="M13 6h8" />
    <path d="M13 12h8" />
    <path d="M13 18h8" />
  </symbol>
  <symbol id="repeat" viewBox="0 0 24 24">
    <path d="m17 2 4 4-4 4" />
    <path d="M3 11v-1a4 4 0 0 1 4-4h14" />
    <path d="m7 22-4-4 4-4" />
    <path d="M21 13v1a4 4 0 0 1-4 4H3" />
  </symbol>
  <symbol id="calendar-clock" viewBox="0 0 24 24">
    <path d="M21 7.5V6a2 2 0 0 0-2-2H5a2 2 0 0 0-2 2v14a2 2 0 0 0 2 2h3.5" />
    <path d="M16 2v4" />
    <path d="M8 2v4" />
    <path d="M3 10h5" />
    <path d="M17.5 17.5 16 16.3V14" />
    <circle cx="16" cy="16" r="6" />
  </symbol>
  <symbol id="server" viewBox="0 0 24 24">
    <rect width="20" height="8" x="2" y="2" rx="2" ry="2" />
    <rect width="20" height="8" x="2" y="14" rx="2" ry="2" />
    <line x1="6" x2="6.01" y1="6" y2="6" />
    <line x1="6" x2="6.01" y1="18" y2="18" />
  </symbol>
  <symbol id="circle-x" viewBox="0 0 24 24">
    <circle cx="12" cy="12" r="10" />
    <path d="m15 9-6 6" />
    <path d="m9 9 6 6" />
  </symbol>
  <symbol id="chart-no-axes-combined" viewBox="0 0 24 24">
    <path d="M12 16v5" />
    <path d="M16 14v7" />
    <path d="M20 10v11" />
    <path d="m22 3-8.646 8.646a.5.5 0 0 1-.708 0L9.354 8.354a.5.5 0 0 0-.707 0L2 15" />
    <path d="M4 18v3" />
    <path d="M8 14v7" />
  </symbol>
  <symbol id="settings" viewBox="0 0 24 24">
    <path d="M12.22 2h-.44a2 2 0 0 0-2 2v.18a2 2 0 0 1-1 1.73l-.43.25a2 2 0 0 1-2 0l-.15-.08a2 2 0 0 0-2.73.73l-.22.38a2 2 0 0 0 .73 2.73l.15.1a2 2 0 0 1 1 1.72v.51a2 2 0 0 1-1 1.74l-.15.09a2 2 0 0 0-.73 2.73l.22.38a2 2 0 0 0 2.73.73l.15-.08a2 2 0 0 1 2 0l.43.25a2 2 0 0 1 1 1.73V20a2 2 0 0 0 2 2h.44a2 2 0 0 0 2-2v-.18a2 2 0 0 1 1-1.73l.43-.25a2 2 0 0 1 2 0l.15.08a2 2 0 0 0 2.73-.73l.22-.39a2 2 0 0 0-.73-2.73l-.15-.08a2 2 0 0 1-1-1.74v-.5a2 2 0 0 1 1-1.74l.15-.09a2 2 0 0 0 .73-2.73l-.22-.38a2 2 0 0 0-2.73-.73l-.15.08a2 2 0 0 1-2 0l-.43-.25a2 2 0 0 1-1-1.73V4a2 2 0 0 0-2-2z" />
    <circle cx="12" cy="12" r="3" />
  </symbol>
  <symbol id="refresh-cw" viewBox="0 0 24 24">
    <path d="M3 12a9 9 0 0 1 9-9 9.75 9.75 0 0 1 6.74 2.74L21 8" />
    <path d="M21 3v5h-5" />
    <path d="M21 12a9 9 0 0 1-9 9 9.75 9.75 0 0 1-6.74-2.74L3 16" />
    <path d="M8 16H3v5" />
  </symbol>
  <symbol id="menu" viewBox="0 0 24 24">
    <line x1="4" x2="20" y1="12" y2="12" />
    <line x1="4" x2="20" y1="6" y2="6" />
    <line x1="4" x2="20" y1="18" y2="18" />
  </symbol>
  <symbol id="log-out" viewBox="0 0 24 24">
    <path d="M9 21H5a2 2 0 0 1-2-2V5a2 2 0 0 1 2-2h4" />
    <polyline points="16 17 21 12 16 7" />
    <line x1="21" x2="9" y1="12" y2="12" />
  </symbol>
  <symbol id="sun-moon" viewBox="0 0 24 24">
    <path d="M12 8a2.83 2.83 0 0 0 4 4 4 4 0 1 1-4-4" />
    <path d="M12 2v2" />
    <path d="M12 20v2" />
    <path d="m4.9 4.9 1.4 1.4" />
    <path d="m17.7 17.7 1.4 1.4" />
    <path d="M2 12h2" />
    <path d="M20 12h2" />
    <path d="m6.3 17.7-1.4 1.4" />
    <path d="m19.1 4.9-1.4 1.4" />
  </symbol>
</svg>
